<svg width="70" height="60" viewBox="0 0 70 60" fill="none" xmlns="http://www.w3.org/2000/svg">
<path fill-rule="evenodd" clip-rule="evenodd" d="M12.9109 0.717613C13.0362 0.292141 13.4267 0 13.8702 0C14.3137 0 14.7043 0.292141 14.8295 0.717613L16.2314 5.47991L19.7543 7.11861L34.978 7.1186L56.6003 7.1186C56.8991 7.1186 57.1822 7.2522 57.3722 7.48281L69.7278 22.4828C70.0467 22.87 70.0294 23.4335 69.6874 23.8005L55.3003 39.2353L57.1109 40.3095C57.4145 40.4896 57.6006 40.8165 57.6006 41.1695C57.6006 41.5225 57.4145 41.8494 57.1109 42.0295L54.5703 43.5369L53.434 47.069C53.301 47.4824 52.9164 47.7627 52.4821 47.7627C52.0478 47.7627 51.6631 47.4824 51.5301 47.069L50.5478 44.0154L35.7033 59.6545C35.5144 59.8535 35.252 59.9662 34.9776 59.9661C34.7032 59.966 34.4409 59.8531 34.2522 59.654L0.274224 23.8065C-0.073034 23.4402 -0.0927989 22.8725 0.22814 22.4828L10.336 10.2117L7.78547 9.02535C7.43278 8.8613 7.20722 8.50762 7.20722 8.11864C7.20722 7.72967 7.43278 7.37599 7.78547 7.21194L11.509 5.47991L12.9109 0.717613ZM11.7641 11.6237L3.11928 22.1186L21.7526 22.1186L15.5479 13.0793L14.8295 15.5197C14.7043 15.9451 14.3137 16.2373 13.8702 16.2373C13.4267 16.2373 13.0362 15.9451 12.9109 15.5197L11.7641 11.6237ZM14.0991 10.9184L14.0756 10.9345L14.0888 10.9537L13.8702 11.696L13.3 9.75894C13.2188 9.48326 13.023 9.25582 12.7624 9.13461L10.5783 8.11864L12.7624 7.10267C13.023 6.98147 13.2188 6.75403 13.3 6.47835L13.8702 4.54124L14.4404 6.47835C14.5216 6.75403 14.7174 6.98147 14.978 7.10267L17.1622 8.11864L14.978 9.13461C14.7174 9.25582 14.5216 9.48326 14.4404 9.75894L14.0991 10.9184ZM16.3439 10.705L23.6906 21.4079L32.9699 9.1186L19.7545 9.1186L16.3439 10.705ZM47.8532 42.0295L49.0188 42.7211L37.2379 55.1327L47.0367 24.1186L66.6567 24.1186L54.1597 37.5257L53.434 35.27C53.301 34.8566 52.9164 34.5763 52.4821 34.5763C52.0478 34.5763 51.6631 34.8566 51.5301 35.27L50.3938 38.8021L47.8532 40.3095C47.5496 40.4896 47.3635 40.8165 47.3635 41.1695C47.3635 41.5225 47.5496 41.8494 47.8532 42.0295ZM3.32568 24.1186L22.9192 24.1186L32.716 55.126L3.32568 24.1186ZM34.978 55.6468L25.0166 24.1186L44.9393 24.1186L34.978 55.6468ZM44.2958 22.1186L25.6601 22.1186L34.978 9.77812L44.2958 22.1186ZM36.9861 9.1186L46.2653 21.4079L54.701 9.1186L36.9861 9.1186ZM56.673 9.77971L48.2033 22.1186L66.8366 22.1186L56.673 9.77971ZM52.4821 38.8416L52.7824 39.7751C52.8571 40.0074 53.0142 40.2044 53.224 40.3289L54.6409 41.1695L53.224 42.0102C53.0142 42.1347 52.8571 42.3316 52.7824 42.5639L52.4821 43.4974L52.1817 42.5639C52.107 42.3316 51.9499 42.1347 51.7401 42.0102L50.3232 41.1695L51.7401 40.3289C51.9499 40.2044 52.107 40.0074 52.1817 39.7751L52.4821 38.8416Z" fill="#FFFCF5"/>
</svg>
