<svg width="50" height="43" viewBox="0 0 50 43" fill="none" xmlns="http://www.w3.org/2000/svg">
<path fill-rule="evenodd" clip-rule="evenodd" d="M49.538 0.225642C49.8253 0.457475 49.9577 0.825293 49.8825 1.18253L41.3709 41.6407C41.3 41.9774 41.055 42.2547 40.724 42.373C40.393 42.4912 40.0234 42.4334 39.7481 42.2202L28.6842 33.6536L18.6775 41.6886C18.3885 41.9207 17.9925 41.979 17.6475 41.8404C17.3025 41.7018 17.0645 41.3887 17.0285 41.026L15.4972 25.5973L0.708957 21.1226C0.301657 20.9993 0.0183937 20.6397 0.000860522 20.2236C-0.0166727 19.8075 0.235294 19.4244 0.63072 19.2659L48.5094 0.0743175C48.8554 -0.0643569 49.2508 -0.00618896 49.538 0.225642ZM16.3018 23.7705L39.8472 9.48597C40.2871 9.2191 40.8611 9.3178 41.1785 9.71487C41.4958 10.1119 41.4545 10.6797 41.0826 11.0316L23.8241 27.3641L29.3069 31.6093L39.7199 39.672L47.5183 2.60403L3.99959 20.048L16.3018 23.7705ZM21.063 27.9826L17.6171 26.4554L18.5569 35.9241L21.063 27.9826ZM19.9927 38.0793L22.8218 29.1145L27.0654 32.4002L19.9927 38.0793ZM22.0855 26.2632L18.5806 24.7098L32.9188 16.0111L22.0855 26.2632Z" fill="#011746"/>
</svg>
